<svg xmlns="http://www.w3.org/2000/svg" width="1200" height="800" viewBox="0 0 1200 800">
  <defs>
    <linearGradient id="sky" x1="0" y1="0" x2="0" y2="1">
      <stop offset="0" stop-color="#071A2B"/>
      <stop offset="1" stop-color="#0B2438"/>
    </linearGradient>
  </defs>
  <rect width="1200" height="800" fill="url(#sky)"/>
  <circle cx="240" cy="190" r="58" fill="#D8B35A" opacity="0.85"/>
  <path d="M0 610 C 260 560, 420 690, 640 650 C 830 616, 980 690, 1200 640 V800 H0 Z" fill="#0F2F49" opacity="0.85"/>
  <path d="M0 650 C 260 600, 420 730, 640 690 C 830 656, 980 730, 1200 680 V800 H0 Z" fill="#071A2B" opacity="0.6"/>
  <g opacity="0.85">
    <rect x="820" y="350" width="48" height="220" fill="#0B2438" />
    <rect x="880" y="320" width="64" height="250" fill="#0B2438" />
    <rect x="955" y="380" width="40" height="190" fill="#0B2438" />
    <rect x="895" y="350" width="18" height="28" fill="#8FD3FF" opacity="0.8"/>
    <rect x="905" y="395" width="18" height="28" fill="#F3D27A" opacity="0.9"/>
    <rect x="840" y="410" width="16" height="26" fill="#8FD3FF" opacity="0.75"/>
  </g>
  <path d="M180 610 C 210 600, 230 620, 260 610" stroke="#8FD3FF" stroke-width="8" stroke-linecap="round" opacity="0.4"/>
  <path d="M510 650 C 540 640, 560 660, 590 650" stroke="#8FD3FF" stroke-width="8" stroke-linecap="round" opacity="0.35"/>
</svg>
